# xmcd
#
# Track frame offsets: 
#        150
#        7966
#        32062
#        34820
#        60469
#        62545
#        85832
#        108123
#        123331
#        142622
#        167141
#
# Disc length: 2682 seconds
#
# Revision: 0
# Processed by: cddbd v1.5.2PL0 Copyright (c) Steve Scherf et al.
# Submitted via: ExactAudioCopy v0.99pb5
#
DISCID=7c0a780b
DTITLE=The Allman Brothers Band - 03-17-09 Beacon Theatre (Disc2)
DYEAR=2009
DGENRE=Blues
TTITLE0=Announcements
TTITLE1=Please Be With Me
TTITLE2=Announcements
TTITLE3=All My Friends
TTITLE4=Announcements
TTITLE5=Everybody's Talking
TTITLE6=It Takes a Lot to Laugh, It Takes A Train to Cry
TTITLE7=Midnight Rider
TTITLE8=Can't Find My Way Home
TTITLE9=Statesboro Blues
TTITLE10=Ain't Wastin' Time No More
EXTD=
EXTT0=
EXTT1=
EXTT2=
EXTT3=
EXTT4=
EXTT5=
EXTT6=
EXTT7=
EXTT8=
EXTT9=
EXTT10=
PLAYORDER=
